# xmcd
#
# Track frame offsets: 
#        150
#        16645
#        31571
#        49705
#        65195
#        86175
#        104977
#        120654
#        134057
#        150388
#        168840
#
# Disc length: 2573 seconds
#
# Revision: 0
# Processed by: cddbd v1.5.2PL0 Copyright (c) Steve Scherf et al.
# Submitted via: ExactAudioCopy v0.95b3
#
DISCID=8e0a0b0b
DTITLE=Jason Boland and The Stragglers - The Bourbon Legend
DYEAR=2006
DGENRE=Country
TTITLE0=Last Country Song
TTITLE1=The Bourbon Legend
TTITLE2=No One Left To Blame
TTITLE3=Jesus And Ruger
TTITLE4=Up And Gone
TTITLE5=Baby That´s Just Me
TTITLE6=Can´t Tell If I Drink
TTITLE7=Lonely By Choice
TTITLE8=Rattlesnakes
TTITLE9=Time In Hell
TTITLE10=Everyday Life
EXTD=
EXTT0=
EXTT1=
EXTT2=
EXTT3=
EXTT4=
EXTT5=
EXTT6=
EXTT7=
EXTT8=
EXTT9=
EXTT10=
PLAYORDER=
